<?xml version="1.0" standalone="no"?><!DOCTYPE svg PUBLIC "-//W3C//DTD SVG 1.1//EN" "http://www.w3.org/Graphics/SVG/1.1/DTD/svg11.dtd"><svg t="1765811751597" class="icon" viewBox="0 0 1024 1024" version="1.1" xmlns="http://www.w3.org/2000/svg" p-id="2125" xmlns:xlink="http://www.w3.org/1999/xlink" width="200" height="200"><path d="M943.271 357.148c-14.985-9.363-34.73-4.803-44.093 10.187-0.123 0.197-12.922 20.243-35.283 40.201-28.989 25.875-59.23 38.995-89.881 38.995h-15.437L726.321 284.29c17.245-6.722 34.948-16.813 52.988-30.231 25.099-18.667 42.022-37.451 42.73-38.242 11.792-13.164 10.7-33.417-2.463-45.209-13.163-11.792-33.374-10.704-45.167 2.46-14.369 15.918-59.959 57.23-97.845 57.23H556.3v-12.835c13.482-12.377 21.929-30.057 21.929-49.699 0-37.327-30.48-67.602-68.137-67.759-0.097-0.001-0.192-0.007-0.289-0.007h-0.001-0.001c-37.79 0-68.424 30.342-68.424 67.766 0 19.642 8.447 37.323 21.929 49.7V230.3h-138.21c-50.74 0-86.716-53.763-87.073-54.306l0.076 0.116-0.021 0.014c-5.759-8.459-15.464-14.016-26.469-14.016-17.673 0-32 14.327-32 32a31.853 31.853 0 0 0 6.422 19.228c8.835 12.671 50.339 67.408 115.11 78.854l-30.685 154.341h-35.904c-81.496 0-106.09-64.271-107.097-67.007l0.095 0.269-0.484 0.168c-5.12-10.851-16.157-18.363-28.951-18.363-17.673 0-32 14.327-32 32a31.845 31.845 0 0 0 5.591 18.068c5.145 10.729 14.887 27.783 31.071 44.798 18.773 19.736 49.372 42.49 94.868 50.802l-62.101 382.151a31.999 31.999 0 0 0 31.586 37.133h693.89c17.674 0 32-14.327 32-32 0-2.193-0.221-4.335-0.641-6.404l-62.851-386.781c76.536-25.632 121.648-96.471 123.929-100.123 9.363-14.989 4.803-34.73-10.186-44.094z m-577.979-59.434h298.445l29.587 148.817H335.706l29.586-148.817zM204.748 862.55l57.021-350.896H766.36l57.02 350.896H204.748z" fill="#1d1363" p-id="2126"></path><path d="M668.297 738.397c0-87.911-71.472-159.432-159.323-159.432-87.851 0-159.323 71.521-159.323 159.432v152.921h0.036a32.365 32.365 0 0 0-0.088 2.255c0 17.673 14.327 32 32 32 17.673 0 32-14.327 32-32 0-0.759-0.036-1.509-0.088-2.255h0.14V738.397c0-52.621 42.762-95.432 95.323-95.432s95.323 42.811 95.323 95.432V889.94a32.28 32.28 0 0 0-0.211 3.633c0 17.673 14.327 32 32 32 17.673 0 32-14.327 32-32 0-0.759-0.036-1.509-0.088-2.255h0.299V738.397z" fill="#1d1363" p-id="2127"></path></svg>